<?xml version="1.0" encoding="utf-8"?>
<!-- Generator: Adobe Illustrator 17.1.0, SVG Export Plug-In . SVG Version: 6.00 Build 0)  -->
<!DOCTYPE svg PUBLIC "-//W3C//DTD SVG 1.0//EN" "http://www.w3.org/TR/2001/REC-SVG-20010904/DTD/svg10.dtd">
<svg version="1.0" id="Calque_1" xmlns="http://www.w3.org/2000/svg" xmlns:xlink="http://www.w3.org/1999/xlink" x="0px" y="0px"
	 viewBox="0 0 245 45" enable-background="new 0 0 245 45" xml:space="preserve">
<rect id="rect4248" x="-0.2" y="-0.1" fill="#3C3D3C" width="245" height="45"/>
<g>
	<path fill="#FFFFFF" d="M73.6,13c-2.7-2.9-6.1-4.5-10-4.5c-7.1,0-13,5.9-13,12.9c0,6.9,6,12.9,12.9,12.9H64c3.6,0,6.9-1.5,9.4-4.3
		l0.2-0.2v-5l-1.2,1.7c-2.1,3.1-5.4,5-8.8,5c-1.9,0-4-0.8-5.9-2.1L74,13.4L73.6,13z M63.6,11.2c2.1,0,4.4,0.8,6.2,2.2L55.7,27.5
		c-1.3-1.7-2.2-4.1-2.2-6.1C53.5,15.9,58.2,11.2,63.6,11.2z"/>
	<polygon fill="#FFFFFF" points="77,9 77,11.8 88.4,11.8 75.1,33.8 93,33.8 93,31 80.3,31 93.7,9 	"/>
	<path fill="#FFFFFF" d="M122.5,9.3c-0.1-0.1-0.3-0.1-0.5-0.1s-0.4,0-0.6,0h-2.3h-2.2c-0.2,0-0.4,0-0.7,0s-0.4,0.1-0.5,0.2
		c-0.2,0.1-0.3,0.3-0.4,0.4c-0.1,0.2-0.1,0.4-0.2,0.5c-0.1,0.4-0.2,0.7-0.3,1.1c-0.1,0.3-0.2,0.7-0.3,1.1c-0.4,1.4-0.9,2.8-1.3,4.1
		c-0.4,1.4-0.9,2.7-1.3,4.1c-0.2,0.5-0.3,1-0.5,1.5c-0.1,0.5-0.3,1-0.5,1.5c-0.1,0.2-0.1,0.4-0.2,0.6c-0.1,0.2-0.2,0.4-0.4,0.4
		c0,0-0.1,0.1-0.1,0c0,0-0.1,0-0.1-0.1c-0.1-0.1-0.2-0.2-0.2-0.3c0-0.1-0.1-0.2-0.1-0.3c-0.2-0.4-0.3-0.9-0.5-1.4
		c-0.1-0.5-0.3-0.9-0.5-1.4c-0.5-1.4-1-2.9-1.5-4.3c-0.5-1.5-0.9-2.9-1.5-4.3c-0.1-0.4-0.3-0.8-0.4-1.1c-0.1-0.4-0.3-0.7-0.4-1.1
		c-0.1-0.2-0.1-0.4-0.2-0.6c-0.1-0.2-0.2-0.4-0.3-0.5c-0.2-0.2-0.5-0.2-0.9-0.2c-0.4,0-0.7,0-1.1,0h-4.4c0,0-0.1,0-0.1,0
		c0,0-0.1,0-0.1,0c-0.3,0.1-0.4,0.2-0.5,0.3c0,0.1-0.1,0.2-0.1,0.4c0,0.2,0,0.3,0,0.5c0,0.2,0,0.4,0,0.6c0,0.2,0,0.4,0,0.5v4.7v12.5
		v3c0,0.2,0,0.5,0,0.7c0,0.2,0.1,0.4,0.2,0.5c0.1,0.1,0.3,0.2,0.5,0.2c0.2,0,0.4,0,0.7,0h1.7c0.2,0,0.4,0,0.5,0c0.2,0,0.3,0,0.5-0.1
		c0.2,0,0.4-0.1,0.5-0.3c0.1-0.1,0.1-0.3,0.1-0.4c0-0.2,0-0.4,0-0.5v-1.6v-8.9c0-0.2,0-0.5,0-0.7c0-0.2,0-0.5,0-0.7
		c0-0.2,0-0.4,0-0.5c0-0.2,0-0.3,0.1-0.5c0-0.2,0.1-0.3,0.1-0.5c0-0.2,0.1-0.3,0.2-0.3c0.1,0,0.1-0.1,0.2,0c0,0,0.1,0.1,0.1,0.1
		c0.1,0.2,0.3,0.5,0.4,0.8c0.2,0.5,0.5,1.1,0.6,1.7c0.2,0.6,0.4,1.2,0.6,1.7c0.2,0.5,0.3,1,0.5,1.4c0.2,0.5,0.3,1,0.5,1.4
		c0.1,0.2,0.2,0.4,0.3,0.7c0.1,0.2,0.1,0.4,0.2,0.7c0,0,0,0.1,0.1,0.2c0,0.1,0,0.1,0.1,0.2c0.1,0.2,0.2,0.4,0.2,0.7
		c0.1,0.2,0.2,0.4,0.3,0.6c0,0.1,0,0.1,0.1,0.2c0,0.1,0,0.1,0.1,0.2c0.1,0.3,0.2,0.6,0.3,0.9c0.1,0.3,0.2,0.6,0.3,0.9l0.1,0.3
		c0.1,0.3,0.2,0.5,0.3,0.8c0.1,0.3,0.2,0.6,0.3,0.8c0.1,0.2,0.2,0.4,0.2,0.5c0.1,0.1,0.2,0.3,0.4,0.4c0.1,0.1,0.2,0.1,0.4,0.1
		c0.2,0,0.4,0,0.6,0c0.2,0,0.4,0,0.6,0c0.2,0,0.4,0,0.6,0h0.8c0.2,0,0.3-0.1,0.4-0.1c0.1,0,0.2-0.1,0.3-0.2c0.1-0.1,0.2-0.2,0.3-0.3
		c0.1-0.1,0.1-0.3,0.2-0.4c0.1-0.2,0.2-0.5,0.3-0.8c0.1-0.3,0.2-0.5,0.3-0.8c0-0.1,0.1-0.1,0.1-0.2c0-0.1,0-0.1,0.1-0.2
		c0.2-0.6,0.5-1.3,0.7-2c0.2-0.7,0.4-1.3,0.7-2c0.1-0.2,0.2-0.4,0.2-0.7c0.1-0.2,0.1-0.4,0.2-0.6c0.1-0.2,0.2-0.4,0.3-0.7
		c0.1-0.2,0.1-0.4,0.2-0.6c0-0.1,0.1-0.1,0.1-0.2c0-0.1,0-0.2,0.1-0.2c0.1-0.3,0.2-0.6,0.3-0.9c0.1-0.3,0.2-0.6,0.3-0.9
		c0.1-0.1,0.1-0.3,0.2-0.4c0-0.1,0.1-0.3,0.1-0.4c0.1-0.4,0.3-0.7,0.4-1.1c0.1-0.4,0.3-0.7,0.4-1c0-0.1,0.1-0.2,0.2-0.4
		c0.1-0.1,0.1-0.2,0.2-0.3c0,0,0.1-0.1,0.1-0.1c0,0,0.1-0.1,0.2,0c0.1,0,0.2,0.2,0.2,0.3c0,0.2,0,0.3,0.1,0.5c0,0.2,0.1,0.4,0.1,0.6
		c0,0.2,0,0.4,0,0.6c0,0.3,0,0.6,0,0.9c0,0.3,0,0.6,0,0.9V30v1.7c0,0.2,0,0.4,0,0.6c0,0.2,0,0.3,0.1,0.4c0.1,0.1,0.2,0.2,0.3,0.2
		c0.1,0,0.3,0.1,0.5,0.1h0.9h1.6c0.2,0,0.5,0,0.7,0c0.2,0,0.4-0.1,0.5-0.2c0.1-0.1,0.2-0.3,0.2-0.5c0-0.2,0-0.5,0-0.7v-2.9V16.2v-5
		c0-0.4,0-0.8,0-1.1C122.9,9.7,122.8,9.4,122.5,9.3z"/>
	<path fill="#FFFFFF" d="M145.5,29.2c-0.1-0.2-0.2-0.3-0.4-0.4c-0.1-0.1-0.3-0.1-0.5-0.1c-0.2,0-0.3,0-0.5,0h-1.8H136h-1.4
		c-0.1,0-0.2,0-0.4,0c-0.1,0-0.3,0-0.4,0h-0.3c-0.1,0-0.2-0.1-0.3-0.1c-0.1,0-0.2-0.1-0.3-0.1c-0.2-0.1-0.3-0.3-0.3-0.5
		c0-0.2-0.1-0.5-0.1-0.7v-1.9v-1.3c0-0.1,0-0.2,0-0.4c0-0.1,0-0.2,0-0.4c0.1-0.2,0.2-0.4,0.3-0.5c0.1-0.1,0.3-0.2,0.5-0.2
		c0.2,0,0.4,0,0.7,0c0.2,0,0.5,0,0.8,0h6.6c0.2,0,0.4,0,0.6,0c0.2,0,0.5,0,0.7,0c0.2,0,0.4,0,0.6,0c0.2,0,0.3-0.1,0.5-0.1
		c0.1-0.1,0.2-0.3,0.3-0.4c0-0.1,0.1-0.2,0.1-0.4c0-0.2,0-0.3,0-0.5c0-0.2,0-0.4,0-0.6c0-0.2,0-0.5,0-0.7c0-0.2,0-0.5-0.1-0.7
		c0-0.2-0.1-0.3-0.2-0.4c-0.1-0.1-0.2-0.1-0.4-0.1c-0.2,0-0.4,0-0.6-0.1c-0.2,0-0.5,0-0.7,0c-0.2,0-0.4,0-0.6,0h-5.8H134
		c-0.2,0-0.4,0-0.6,0c-0.2,0-0.3-0.1-0.5-0.2c-0.1-0.1-0.2-0.2-0.2-0.3c0-0.1-0.1-0.3-0.1-0.5v-1v-1.9c0-0.3,0-0.5,0.1-0.7
		c0-0.2,0.1-0.4,0.3-0.5c0.1-0.1,0.2-0.1,0.4-0.2c0.2,0,0.4-0.1,0.7-0.1c0.2,0,0.5,0,0.7,0c0.2,0,0.4,0,0.6,0h6.1h2.3
		c0.2,0,0.4,0,0.6,0c0.2,0,0.4,0,0.5-0.1c0.2-0.1,0.3-0.3,0.3-0.5c0-0.2,0-0.4,0-0.5c0-0.2,0-0.3,0-0.5c0-0.2,0-0.3,0-0.5
		c0-0.2,0-0.3,0-0.5c0-0.2,0-0.3,0-0.5V10c0-0.1-0.1-0.2-0.1-0.3c0-0.1,0-0.2-0.1-0.2c-0.1-0.2-0.3-0.2-0.5-0.3c-0.2,0-0.5,0-0.8,0
		h-2.9h-12.6c0,0-0.1,0-0.1,0c0,0-0.1,0-0.1,0c-0.2,0.1-0.4,0.2-0.5,0.3c-0.1,0.1-0.1,0.3-0.1,0.5c0,0.2,0,0.4,0,0.6v2.1V20v9.1v2.4
		c0,0.2,0,0.4,0,0.6c0,0.2,0,0.4,0.1,0.5c0.1,0.2,0.3,0.3,0.5,0.3c0.2,0,0.5,0.1,0.8,0.1h2.7h9.9h2.5c0.2,0,0.5,0,0.7,0
		s0.4-0.1,0.5-0.2c0.2-0.1,0.3-0.3,0.3-0.5c0-0.2,0-0.5,0-0.8v-1.5c0-0.2,0-0.3,0-0.5C145.5,29.4,145.5,29.3,145.5,29.2z"/>
	<path fill="#FFFFFF" d="M167.3,24.5c0,0,0-0.1,0-0.2c0-0.1,0-0.1,0-0.2c-0.1-0.2-0.2-0.4-0.3-0.7c-0.1-0.2-0.2-0.4-0.3-0.6
		c-0.4-0.6-0.8-1.1-1.2-1.5c-0.4-0.4-1-0.8-1.6-1.1c-0.4-0.2-0.8-0.4-1.3-0.6c-0.5-0.1-0.9-0.3-1.4-0.4c-0.1,0-0.2-0.1-0.3-0.1
		c-0.1,0-0.2,0-0.3-0.1c-0.6-0.2-1.3-0.3-1.9-0.5c-0.6-0.1-1.3-0.3-1.9-0.5c-0.3-0.1-0.5-0.2-0.8-0.2c-0.3-0.1-0.5-0.1-0.8-0.3
		c-0.4-0.2-0.8-0.4-1.2-0.6c-0.3-0.2-0.6-0.5-0.8-1c0-0.1-0.1-0.3-0.1-0.5c0-0.2,0-0.4,0-0.5c0.1-0.6,0.3-1.1,0.6-1.4
		c0.3-0.3,0.7-0.6,1.2-0.8c0.3-0.1,0.7-0.2,1.1-0.3c0.4,0,0.8-0.1,1.2,0c0.4,0,0.8,0.1,1.2,0.2c0.4,0.1,0.7,0.2,1,0.3
		c0.3,0.2,0.6,0.3,0.9,0.6c0.2,0.1,0.3,0.3,0.5,0.6c0.2,0.2,0.3,0.5,0.4,0.7c0.1,0.2,0.2,0.5,0.3,0.7c0.1,0.2,0.2,0.4,0.5,0.5
		c0.1,0,0.3,0.1,0.5,0.1c0.2,0,0.4,0,0.6,0h2.1c0.2,0,0.5,0,0.7-0.1c0.2,0,0.4-0.1,0.5-0.3c0.1-0.1,0.1-0.3,0.2-0.5
		c0-0.2,0-0.4-0.1-0.6c-0.1-0.4-0.2-0.9-0.4-1.2c-0.1-0.4-0.3-0.8-0.5-1.1c-1.6-2.6-4.6-3.9-9-3.9c0,0-0.1,0.1-0.3,0
		c-0.1,0-0.3,0-0.3,0c-0.2,0-0.4,0.1-0.7,0.1c-0.2,0-0.4,0-0.7,0.1c-0.6,0.1-1.1,0.3-1.6,0.4c-0.5,0.2-1,0.4-1.4,0.6
		c-0.7,0.4-1.3,0.9-1.8,1.5c-0.5,0.5-1,1.2-1.3,2c-0.1,0.2-0.2,0.4-0.2,0.7c0,0.2-0.1,0.5-0.2,0.7c0,0.2,0,0.3,0,0.4
		c0,0.2-0.1,0.6,0,0.9c0,0.4,0.1,0.7,0.1,0.9c0.1,0.2,0.1,0.5,0.2,0.7c0,0.2,0.1,0.4,0.2,0.6c0.2,0.6,0.6,1.1,1,1.5
		c0.4,0.4,0.9,0.8,1.4,1.2c0.4,0.2,0.8,0.5,1.3,0.7c0.5,0.2,1,0.4,1.5,0.6c0.2,0,0.3,0.1,0.5,0.1c0.1,0,0.3,0.1,0.5,0.1
		c0.1,0,0.2,0.1,0.2,0.1c0.1,0,0.2,0,0.3,0.1c0.3,0.1,0.7,0.2,1.1,0.3c0.4,0.1,0.7,0.2,1.1,0.3c0.2,0,0.3,0.1,0.5,0.1
		c0.1,0,0.3,0.1,0.5,0.1c0.4,0.1,0.8,0.3,1.2,0.4c0.4,0.1,0.8,0.3,1.1,0.5c0.2,0.1,0.3,0.2,0.4,0.2c0.5,0.3,0.9,0.8,1.1,1.4
		c0,0.1,0.1,0.3,0.1,0.5c0,0.2,0,0.4,0,0.5c-0.2,0.8-0.5,1.3-0.9,1.7c-0.4,0.3-1.1,0.6-1.8,0.8c-0.1,0-0.2,0.1-0.4,0.1
		c-0.1,0-0.2,0-0.4,0.1c-0.2,0-0.3,0-0.3,0c-0.2,0-0.4,0.1-0.7,0.1c-0.3,0-0.6,0-0.7-0.1H157c-0.2,0-0.3-0.1-0.5-0.1
		c-0.1,0-0.3,0-0.5-0.1c-0.7-0.2-1.3-0.5-1.8-0.8c-0.1-0.1-0.3-0.2-0.4-0.3c-0.1-0.1-0.3-0.2-0.4-0.4c-0.2-0.2-0.3-0.4-0.4-0.6
		c-0.1-0.2-0.2-0.5-0.3-0.7c-0.1-0.3-0.2-0.5-0.2-0.8c0-0.3-0.2-0.4-0.4-0.6c-0.2-0.1-0.3-0.1-0.5-0.1s-0.4,0-0.6,0h-2.1
		c-0.3,0-0.5,0-0.7,0.1c-0.2,0-0.4,0.1-0.5,0.3c-0.1,0.1-0.2,0.3-0.1,0.6c0,0.3,0.1,0.5,0.1,0.7c0,0.2,0.1,0.3,0.1,0.4
		c0,0.1,0,0.3,0.1,0.4c0.2,0.7,0.5,1.4,0.8,1.9c0.6,0.9,1.3,1.6,2.1,2.2c0.8,0.5,1.8,1,2.9,1.4c0.2,0.1,0.5,0.2,0.8,0.2
		c0.3,0,0.6,0.1,0.8,0.2c0.1,0,0.2,0,0.3,0.1c0.1,0,0.2,0,0.3,0c0.1,0,0.3,0.1,0.5,0.1c0.2,0,0.3,0,0.5,0.1h0.3c0.1,0,0.3,0,0.6,0
		c0.3,0,0.5,0,0.6,0c0,0,0.1,0,0.2,0c0.1,0,0.1,0,0.2,0h0.3c0.1,0,0.3-0.1,0.4-0.1c0.1,0,0.3,0,0.5-0.1c0.3-0.1,0.7-0.1,1-0.2
		c0.3,0,0.7-0.1,1-0.2c0.4-0.2,0.9-0.3,1.3-0.5c0.4-0.2,0.8-0.4,1.2-0.6c0.1-0.1,0.3-0.2,0.4-0.3c0.1-0.1,0.2-0.2,0.4-0.3
		c0.2-0.1,0.3-0.2,0.4-0.4c0.1-0.1,0.3-0.3,0.4-0.4c0.1-0.1,0.1-0.2,0.2-0.3c0.1-0.1,0.2-0.2,0.3-0.3c0.2-0.3,0.4-0.6,0.6-1
		c0.2-0.3,0.3-0.7,0.4-1.1c0.1-0.2,0.1-0.4,0.2-0.7c0-0.2,0.1-0.5,0.1-0.7v-0.6c0-0.1,0-0.2,0-0.3C167.5,25.3,167.4,24.9,167.3,24.5
		z"/>
	<path fill="#FFFFFF" d="M190.1,9.2c-0.2,0-0.3-0.1-0.5-0.1c-0.2,0-0.3,0-0.5,0h-2.2c-0.2,0-0.5,0-0.7,0.1c-0.2,0-0.4,0.1-0.5,0.3
		c-0.1,0.2-0.2,0.5-0.2,0.8c0,0.4,0,0.7,0,1v4.5v6.7c0,0.9,0,1.7-0.1,2.5c0,0.8-0.2,1.5-0.4,2.1c-0.2,0.4-0.4,0.7-0.7,1
		c-0.3,0.3-0.7,0.5-1.1,0.7c-0.2,0.1-0.4,0.2-0.7,0.2c-0.2,0-0.3,0.1-0.5,0.1c-0.2,0-0.4,0.1-0.5,0.1H181c-0.1,0-0.2,0-0.4,0.1
		c-0.2,0-0.3,0-0.4,0c-0.1,0-0.2,0-0.3,0c-0.1,0-0.2,0-0.3-0.1c-0.2,0-0.4-0.1-0.5-0.1c-0.2,0-0.4-0.1-0.5-0.1
		c-0.7-0.2-1.2-0.5-1.6-0.9c-0.4-0.4-0.7-0.9-1-1.4c-0.1-0.2-0.2-0.5-0.2-0.7c0-0.2-0.1-0.5-0.1-0.7c0-0.1,0-0.2,0-0.4
		c0-0.2-0.1-0.4-0.1-0.6c0-0.2,0-0.4,0-0.6V23c0-0.1,0-0.2,0-0.3c0-0.1,0-0.2,0-0.3v-1.2v-6.9v-3.4c0-0.3,0-0.6,0-0.9
		c0-0.3-0.1-0.5-0.2-0.7c-0.1-0.1-0.3-0.2-0.5-0.2c-0.2,0-0.5,0-0.7,0h-2.9c0,0-0.1,0-0.1,0c0,0-0.1,0-0.1,0
		c-0.2,0.1-0.4,0.2-0.5,0.3c-0.1,0.1-0.1,0.3-0.1,0.5c0,0.2,0,0.4,0,0.7V13v9.4c0,0.8,0,1.6,0,2.4c0,0.8,0.1,1.5,0.3,2.1
		c0,0.1,0.1,0.2,0.1,0.3c0,0.1,0,0.2,0.1,0.3c0.2,0.5,0.3,1,0.5,1.4c0.2,0.4,0.4,0.9,0.7,1.3c0.9,1.2,2,2.1,3.5,2.7
		c1.5,0.5,3.3,0.8,5.4,0.8c0.3,0,0.6,0,1,0c0.3,0,0.6-0.1,0.9-0.1c0.1,0,0.3-0.1,0.4-0.1c0.1,0,0.3,0,0.4-0.1c0.2,0,0.4-0.1,0.6-0.1
		c0.2,0,0.4-0.1,0.6-0.2c0.9-0.3,1.8-0.7,2.5-1.2c0.8-0.5,1.4-1.2,1.9-2c0.5-0.8,0.9-1.7,1.2-2.7c0.2-0.6,0.3-1.4,0.3-2.2
		c0-0.8,0-1.6,0-2.5v-6.8v-4.5c0-0.3,0-0.6,0-0.9c0-0.3,0-0.6-0.2-0.8C190.6,9.3,190.4,9.2,190.1,9.2z"/>
	<path fill="#FFFFFF" d="M215.3,31.8c0-0.2-0.1-0.4-0.1-0.6l-0.1-0.6c0-0.2-0.1-0.5-0.1-0.7c0-0.2,0-0.5-0.1-0.7c0-0.1,0-0.2,0-0.3
		c0-0.1,0-0.2,0-0.3c0-0.1,0-0.2,0-0.3c0-0.1,0-0.2,0-0.3c0-0.1,0-0.3,0-0.4c0-0.1,0-0.3,0-0.4c0-0.2-0.1-0.4-0.1-0.6
		c0-0.2,0-0.4-0.1-0.6c-0.1-0.5-0.3-1-0.4-1.4c-0.2-0.4-0.4-0.8-0.6-1.2c-0.2-0.2-0.3-0.5-0.6-0.6c-0.2-0.2-0.4-0.4-0.7-0.5
		c-0.1,0-0.1-0.1-0.2-0.2c-0.1-0.1-0.1-0.2-0.1-0.3c0-0.1,0.1-0.2,0.2-0.3c0.1-0.1,0.2-0.2,0.3-0.2c0.2-0.1,0.3-0.2,0.4-0.3
		c0.1-0.1,0.3-0.2,0.4-0.3c0.1-0.1,0.2-0.1,0.3-0.2c0.1-0.1,0.2-0.2,0.2-0.3c0-0.1,0.1-0.1,0.2-0.2c0.1-0.1,0.1-0.2,0.2-0.2
		c0.2-0.3,0.3-0.6,0.4-0.9c0.1-0.3,0.2-0.6,0.3-1c0-0.2,0.1-0.3,0.1-0.5c0-0.1,0-0.3,0.1-0.5c0-0.2,0.1-0.4,0.1-0.6
		c0-0.3,0-0.5,0-0.7v-0.3c0-0.1-0.1-0.2-0.1-0.3c0-0.1,0-0.2,0-0.3c-0.1-0.4-0.2-0.8-0.3-1.1c-0.1-0.3-0.2-0.7-0.4-1
		c-0.1-0.1-0.2-0.2-0.2-0.4c-0.1-0.1-0.1-0.2-0.2-0.4c-0.3-0.5-0.7-0.9-1.2-1.2c-0.5-0.4-1-0.7-1.5-0.9c-0.2-0.1-0.3-0.1-0.5-0.2
		c-0.2,0-0.3-0.1-0.5-0.1c-0.1,0-0.2-0.1-0.4-0.1s-0.2,0-0.4-0.1c-0.3-0.1-0.6-0.1-0.9-0.1c-0.3,0-0.7,0-1,0h-11.4c0,0-0.1,0-0.2,0
		c-0.1,0-0.1,0-0.2,0c-0.2,0.1-0.4,0.2-0.5,0.3c-0.1,0.2-0.2,0.4-0.2,0.6c0,0.3,0,0.5,0,0.8v20.4c0,0.3,0,0.6,0,0.9
		c0,0.3,0.1,0.5,0.3,0.6c0.2,0.2,0.5,0.2,0.9,0.2c0.4,0,0.8,0,1.1,0h1.5c0.2,0,0.3,0,0.5,0c0.2,0,0.3,0,0.4-0.1
		c0.2-0.1,0.3-0.2,0.4-0.4c0-0.1,0.1-0.2,0.1-0.4c0-0.1,0-0.3,0-0.5c0-0.2,0-0.4,0-0.6c0-0.2,0-0.4,0-0.6v-4.3c0-0.4,0-0.8,0-1.3
		c0-0.5,0.1-0.8,0.2-1c0.1-0.1,0.2-0.2,0.3-0.2c0.1,0,0.3-0.1,0.5-0.1h2.8c0.5,0,1,0,1.6,0c0.5,0,1,0.1,1.4,0.2
		c0.1,0,0.3,0.1,0.4,0.1c0.1,0,0.2,0.1,0.3,0.1c0.4,0.2,0.8,0.5,1,0.9c0.2,0.4,0.5,0.9,0.6,1.4c0.1,0.2,0.1,0.5,0.2,0.8
		c0,0.3,0.1,0.5,0.1,0.8c0,0.1,0,0.2,0,0.3c0,0.2,0.1,0.5,0.1,0.8c0,0.3,0,0.6,0.1,0.9c0,0.1,0,0.1,0,0.2c0,0.1,0,0.2,0,0.3
		c0.1,0.4,0.1,0.8,0.2,1.2c0,0.4,0.1,0.8,0.3,1.1c0.1,0.2,0.3,0.4,0.6,0.4c0.3,0,0.6,0.1,0.9,0.1h1.8c0.2,0,0.5,0,0.7,0
		c0.2,0,0.4,0,0.6-0.2c0.1,0,0.1-0.1,0.2-0.2c0.1-0.1,0.1-0.2,0-0.4C215.4,32.2,215.3,32,215.3,31.8z M209.9,17.2
		c-0.1,0.3-0.1,0.6-0.2,0.8c-0.1,0.2-0.2,0.5-0.3,0.7c-0.2,0.3-0.4,0.5-0.7,0.7c-0.3,0.2-0.6,0.3-1,0.4c-0.2,0-0.3,0.1-0.5,0.1
		c-0.2,0-0.3,0-0.5,0.1h-0.4c-0.1,0-0.3,0.1-0.5,0.1c-0.2,0-0.3,0-0.5,0h-2c-0.2,0-0.4,0-0.7,0c-0.3,0-0.5,0-0.8,0
		c-0.2,0-0.5-0.1-0.7-0.1c-0.2,0-0.3-0.1-0.4-0.3c-0.1-0.2-0.2-0.4-0.2-0.6c0-0.3,0-0.5,0-0.8v-3.1c0-0.3,0-0.5,0-0.8
		c0-0.3,0-0.5,0.2-0.7c0.1-0.2,0.3-0.3,0.5-0.3c0,0,0.1,0,0.1,0c0,0,0.1,0,0.1-0.1h3.9c0.5,0,1.1,0,1.5,0c0.5,0,0.9,0.1,1.3,0.3
		c0.7,0.3,1.2,0.8,1.5,1.5c0,0.1,0.1,0.1,0.1,0.2c0,0.1,0,0.1,0.1,0.2c0,0.2,0.1,0.4,0.1,0.8C209.9,16.6,209.9,16.9,209.9,17.2z"/>
	<path fill="#FFFFFF" d="M237.4,29.6c0-0.2,0-0.3-0.1-0.4c-0.1-0.2-0.2-0.3-0.4-0.4c-0.1-0.1-0.3-0.1-0.5-0.1c-0.2,0-0.3,0-0.5,0
		h-1.8h-6.3h-1.4c-0.1,0-0.2,0-0.4,0c-0.1,0-0.3,0-0.4,0h-0.3c-0.1,0-0.2-0.1-0.3-0.1c-0.1,0-0.2-0.1-0.3-0.1
		c-0.2-0.1-0.3-0.3-0.3-0.5c0-0.2-0.1-0.5-0.1-0.7v-1.9v-1.3c0-0.1,0-0.2,0-0.4c0-0.1,0-0.2,0-0.4c0.1-0.2,0.2-0.4,0.3-0.5
		c0.1-0.1,0.3-0.2,0.5-0.2c0.2,0,0.4,0,0.7,0c0.2,0,0.5,0,0.8,0h6.6c0.2,0,0.4,0,0.6,0c0.2,0,0.5,0,0.7,0c0.2,0,0.4,0,0.6,0
		c0.2,0,0.3-0.1,0.5-0.1c0.1-0.1,0.2-0.3,0.3-0.4c0-0.1,0.1-0.2,0.1-0.4c0-0.2,0-0.3,0-0.5c0-0.2,0-0.4,0-0.6c0-0.2,0-0.5,0-0.7
		c0-0.2,0-0.5-0.1-0.7c0-0.2-0.1-0.3-0.2-0.4c-0.1-0.1-0.2-0.1-0.4-0.1c-0.2,0-0.4,0-0.6-0.1c-0.2,0-0.5,0-0.7,0c-0.2,0-0.4,0-0.6,0
		h-5.8h-1.8c-0.2,0-0.4,0-0.6,0c-0.2,0-0.3-0.1-0.5-0.2c-0.1-0.1-0.2-0.2-0.2-0.3c0-0.1-0.1-0.3-0.1-0.5v-1v-1.9
		c0-0.3,0-0.5,0.1-0.7c0-0.2,0.1-0.4,0.3-0.5c0.1-0.1,0.2-0.1,0.4-0.2c0.2,0,0.4-0.1,0.7-0.1c0.2,0,0.5,0,0.7,0c0.2,0,0.4,0,0.6,0
		h6.1h2.3c0.2,0,0.4,0,0.6,0c0.2,0,0.4,0,0.5-0.1c0.2-0.1,0.3-0.3,0.3-0.5c0-0.2,0-0.4,0-0.5c0-0.2,0-0.3,0-0.5c0-0.2,0-0.3,0-0.5
		c0-0.2,0-0.3,0-0.5c0-0.2,0-0.3,0-0.5V10c0-0.1-0.1-0.2-0.1-0.3c0-0.1,0-0.2-0.1-0.2c-0.1-0.2-0.3-0.2-0.5-0.3c-0.2,0-0.5,0-0.8,0
		h-2.9h-12.6c0,0-0.1,0-0.1,0c0,0-0.1,0-0.1,0c-0.2,0.1-0.4,0.2-0.5,0.3c-0.1,0.1-0.1,0.3-0.1,0.5c0,0.2,0,0.4,0,0.6v2.1V20v9.1v2.4
		c0,0.2,0,0.4,0,0.6c0,0.2,0,0.4,0.1,0.5c0.1,0.2,0.3,0.3,0.5,0.3c0.2,0,0.5,0.1,0.8,0.1h2.7h9.9h2.5c0.2,0,0.5,0,0.7,0
		s0.4-0.1,0.5-0.2c0.2-0.1,0.3-0.3,0.3-0.5c0-0.2,0-0.5,0-0.8v-1.5C237.4,29.9,237.4,29.7,237.4,29.6z"/>
</g>
<g>
	<g>
		<path fill="#FFFFFF" d="M26.1,27.2l-7-5.8l7-5.8l7,5.8L26.1,27.2z M19.7,21.5l6.4,5.3l6.4-5.3l-6.4-5.3L19.7,21.5z"/>
		<rect x="9.8" y="21.3" fill="#FFFFFF" width="9.6" height="0.4"/>
		<rect x="32.7" y="21.3" fill="#FFFFFF" width="9.6" height="0.4"/>
	</g>
	<g>
		<line fill="#FFFFFF" x1="26.1" y1="15.9" x2="26.1" y2="8.7"/>
		<rect x="25.9" y="8.7" fill="#FFFFFF" width="0.4" height="7.3"/>
	</g>
	<g>
		<line fill="#FFFFFF" x1="26.1" y1="34.2" x2="26.1" y2="27"/>
		<rect x="25.9" y="27" fill="#FFFFFF" width="0.4" height="7.3"/>
	</g>
	<g>
		<circle fill="#FFFFFF" cx="26.1" cy="15.9" r="2.8"/>
	</g>
	<circle fill="#FFFFFF" cx="17.9" cy="15" r="1.8"/>
	<circle fill="#FFFFFF" cx="26.1" cy="8.7" r="1.8"/>
	<g>
		<circle fill="#FFFFFF" cx="26.1" cy="27" r="2.8"/>
	</g>
	<g>
		<circle fill="#FFFFFF" cx="19.4" cy="21.5" r="2.8"/>
	</g>
	<circle fill="#FFFFFF" cx="17.9" cy="27.8" r="1.8"/>
	<circle fill="#FFFFFF" cx="9.8" cy="21.5" r="1.8"/>
	<circle fill="#FFFFFF" cx="26.1" cy="34.2" r="1.8"/>
	<circle fill="#FFFFFF" cx="34.2" cy="15" r="1.8"/>
	<circle fill="#FFFFFF" cx="26.1" cy="8.7" r="1.8"/>
	<g>
		<circle fill="#FFFFFF" cx="32.7" cy="21.5" r="2.8"/>
	</g>
	<circle fill="#FFFFFF" cx="34.2" cy="27.8" r="1.8"/>
	<circle fill="#FFFFFF" cx="42.3" cy="21.5" r="1.8"/>
	<circle fill="#FFFFFF" cx="26.1" cy="34.2" r="1.8"/>
</g>
</svg>
