<?xml version="1.0" encoding="UTF-8"?><svg id="Calque_1" xmlns="http://www.w3.org/2000/svg" viewBox="0 0 440.47 255.25"><defs><style>.cls-1{fill:none;stroke-width:4.75px;}.cls-1,.cls-2{stroke:#1c2a45;stroke-miterlimit:10;}.cls-3{fill:#1c2a45;}.cls-4,.cls-2{fill:#fff;}.cls-2{stroke-width:4.83px;}.cls-5{fill:#172849;}</style></defs><rect class="cls-2" x="36.08" y="38.84" width="303.15" height="162.64" transform="translate(-10.92 19.06) rotate(-5.65)"/><path class="cls-4" d="M296.24,171.5H37.86c-1.13-10.44-9.96-100.86-9.96-100.86l8.99-.42,259.2-10.73c10.44,2.06-.07,50.66,37.84,25.98,2.49-.09,2.66-.28,4.99-.42,1.16,9.95,6.99,70.16,7.52,75.46-2.96.28-6.98.16-9.7,1.09-8.52,15.35-21.75,9.91-40.49,9.91Z"/><path class="cls-5" d="M44.75,100.2c-1.54-1.48-2.31-3.49-2.31-6.01,0-.67.03-1.18.08-1.51l1.3-10.58c.22-1.93.83-3.63,1.83-5.1.99-1.47,2.28-2.61,3.84-3.43,1.57-.81,3.3-1.22,5.21-1.22,2.66,0,4.77.74,6.32,2.23,1.55,1.48,2.33,3.49,2.33,6.01,0,.67-.03,1.18-.09,1.51l-1.3,10.58c-.25,1.93-.88,3.63-1.87,5.1-.99,1.47-2.28,2.61-3.84,3.43-1.57.81-3.32,1.22-5.25,1.22-2.63,0-4.72-.74-6.26-2.23ZM56.56,97.93c1.4-1.29,2.23-2.99,2.48-5.12l1.35-10.75c.05-.5.08-.86.08-1.09,0-1.85-.54-3.31-1.62-4.39-1.08-1.08-2.56-1.62-4.43-1.62-2.04,0-3.77.65-5.19,1.95-1.42,1.3-2.25,3.02-2.5,5.14l-1.35,10.75c-.06.51-.08.87-.08,1.09,0,1.82.55,3.27,1.64,4.34,1.09,1.08,2.56,1.62,4.41,1.62,2.07,0,3.81-.64,5.21-1.93Z"/><path class="cls-5" d="M85.16,88.31c0,.79-.07,1.84-.21,3.15-.25,2.21-.64,3.95-1.18,5.21-.7,1.79-1.76,3.2-3.17,4.22-1.42,1.02-3.1,1.53-5.06,1.53-1.09,0-2.05-.22-2.88-.65-.83-.43-1.49-1.06-1.99-1.87-.03-.06-.07-.08-.13-.06-.06.02-.08.05-.08.11l-1.22,9.87c0,.11-.04.21-.13.29s-.2.13-.34.13h-2.06c-.25,0-.38-.14-.38-.42l3.53-28.56c.05-.28.21-.42.46-.42h2.06c.25,0,.38.14.38.42l-.21,1.76c-.03.06-.02.09.02.11.04.01.09,0,.15-.06.7-.81,1.53-1.44,2.48-1.89s1.96-.67,3.02-.67c1.9,0,3.44.5,4.6,1.51s1.88,2.38,2.16,4.12c.11.59.17,1.32.17,2.18ZM81.4,94.65c.24-.78.44-1.85.61-3.19.14-.98.21-1.93.21-2.86,0-.76-.1-1.5-.29-2.23-.22-1.01-.71-1.8-1.47-2.39-.76-.59-1.7-.88-2.82-.88s-2.05.29-2.88.88c-.83.59-1.46,1.37-1.91,2.35-.31.59-.56,1.25-.76,1.99-.2.75-.38,1.79-.55,3.13-.14,1.01-.21,1.99-.21,2.94,0,.78.1,1.54.29,2.27.22.95.67,1.71,1.34,2.29s1.53.86,2.56.86c1.09,0,2.07-.28,2.94-.84.87-.56,1.52-1.3,1.97-2.23.39-.62.71-1.32.95-2.1Z"/><path class="cls-5" d="M106.42,92.18c0,.11-.04.21-.13.29-.08.08-.2.13-.34.13h-13.15c-.11,0-.17.05-.17.17-.11,1.23-.17,2.02-.17,2.35,0,1.43.45,2.57,1.36,3.42.91.85,2.19,1.28,3.84,1.28,1.18,0,2.22-.27,3.13-.8.91-.53,1.67-1.29,2.29-2.27.22-.25.42-.31.59-.17l1.47.97c.22.14.25.34.08.59-.84,1.34-1.98,2.4-3.42,3.17-1.44.77-3.06,1.16-4.85,1.16-1.93-.03-3.49-.51-4.66-1.43-1.18-.93-1.96-2.21-2.35-3.87-.17-.73-.25-1.54-.25-2.44,0-.98.08-2.1.25-3.36.14-1.2.28-2.17.42-2.9.14-.72.32-1.38.55-1.97.67-1.82,1.78-3.28,3.32-4.37,1.54-1.09,3.3-1.64,5.29-1.64,2.46,0,4.28.64,5.46,1.93,1.18,1.29,1.78,3.11,1.81,5.46,0,1.07-.13,2.5-.38,4.29ZM95.77,84.17c-.97.71-1.67,1.68-2.12,2.88-.2.56-.42,1.51-.67,2.85,0,.11.05.17.17.17h10.54c.11,0,.17-.05.17-.17.05-1.12.08-1.83.08-2.14,0-1.4-.42-2.53-1.26-3.38-.84-.85-2-1.28-3.49-1.28-1.32,0-2.46.36-3.42,1.07ZM98.1,77.91c-.06-.1-.03-.22.08-.36l3.03-4.58c.08-.19.25-.29.5-.29h1.85c.17,0,.26.05.29.15.03.1-.02.22-.13.36l-3.32,4.58c-.2.19-.38.29-.55.29h-1.47c-.14,0-.24-.05-.29-.15Z"/><path class="cls-5" d="M124.19,81.17c.17.11.22.29.17.55l-.71,2.06c-.14.28-.32.37-.55.25-.45-.19-.97-.29-1.55-.29l-.55.04c-1.43.06-2.66.59-3.7,1.62s-1.65,2.32-1.85,3.89l-1.55,12.39c0,.11-.04.21-.13.29s-.2.13-.34.13h-2.06c-.25,0-.38-.14-.38-.42l2.52-20.42c.05-.28.21-.42.46-.42h2.06c.14,0,.24.04.31.13.07.08.09.18.06.29l-.34,2.56c0,.09.02.13.06.15.04.02.09,0,.15-.06.67-1.04,1.48-1.84,2.44-2.42.95-.57,2.02-.86,3.19-.86.9,0,1.65.18,2.27.54Z"/><path class="cls-5" d="M142.75,92.18c0,.11-.04.21-.13.29-.08.08-.2.13-.34.13h-13.15c-.11,0-.17.05-.17.17-.11,1.23-.17,2.02-.17,2.35,0,1.43.45,2.57,1.36,3.42.91.85,2.19,1.28,3.84,1.28,1.18,0,2.22-.27,3.13-.8.91-.53,1.67-1.29,2.29-2.27.22-.25.42-.31.59-.17l1.47.97c.22.14.25.34.08.59-.84,1.34-1.98,2.4-3.42,3.17-1.44.77-3.06,1.16-4.85,1.16-1.93-.03-3.49-.51-4.66-1.43-1.18-.93-1.96-2.21-2.35-3.87-.17-.73-.25-1.54-.25-2.44,0-.98.08-2.1.25-3.36.14-1.2.28-2.17.42-2.9.14-.72.32-1.38.55-1.97.67-1.82,1.78-3.28,3.32-4.37,1.54-1.09,3.3-1.64,5.29-1.64,2.46,0,4.28.64,5.46,1.93,1.18,1.29,1.78,3.11,1.81,5.46,0,1.07-.13,2.5-.38,4.29ZM132.11,84.17c-.97.71-1.67,1.68-2.12,2.88-.2.56-.42,1.51-.67,2.85,0,.11.05.17.17.17h10.54c.11,0,.17-.05.17-.17.05-1.12.08-1.83.08-2.14,0-1.4-.42-2.53-1.26-3.38-.84-.85-2-1.28-3.49-1.28-1.32,0-2.46.36-3.42,1.07ZM134.44,77.91c-.06-.1-.03-.22.08-.36l3.03-4.58c.08-.19.25-.29.5-.29h1.85c.17,0,.26.05.29.15.03.1-.02.22-.13.36l-3.32,4.58c-.2.19-.38.29-.55.29h-1.47c-.14,0-.24-.05-.29-.15Z"/><path class="cls-5" d="M173.59,88.31c0,.79-.07,1.84-.21,3.15-.25,2.21-.64,3.95-1.18,5.21-.7,1.79-1.76,3.2-3.17,4.22-1.42,1.02-3.1,1.53-5.06,1.53-1.09,0-2.05-.22-2.88-.65-.83-.43-1.49-1.06-1.99-1.87-.03-.06-.07-.08-.13-.06-.06.02-.08.05-.08.11l-1.22,9.87c0,.11-.04.21-.13.29s-.2.13-.34.13h-2.06c-.25,0-.38-.14-.38-.42l3.53-28.56c.05-.28.21-.42.46-.42h2.06c.25,0,.38.14.38.42l-.21,1.76c-.03.06-.02.09.02.11.04.01.09,0,.15-.06.7-.81,1.53-1.44,2.48-1.89s1.96-.67,3.02-.67c1.9,0,3.44.5,4.6,1.51s1.88,2.38,2.16,4.12c.11.59.17,1.32.17,2.18ZM169.83,94.65c.24-.78.44-1.85.61-3.19.14-.98.21-1.93.21-2.86,0-.76-.1-1.5-.29-2.23-.22-1.01-.71-1.8-1.47-2.39-.76-.59-1.7-.88-2.82-.88s-2.05.29-2.88.88c-.83.59-1.46,1.37-1.91,2.35-.31.59-.56,1.25-.76,1.99-.2.75-.38,1.79-.55,3.13-.14,1.01-.21,1.99-.21,2.94,0,.78.1,1.54.29,2.27.22.95.67,1.71,1.34,2.29s1.53.86,2.56.86c1.09,0,2.07-.28,2.94-.84.87-.56,1.52-1.3,1.97-2.23.39-.62.71-1.32.95-2.1Z"/><path class="cls-5" d="M193.46,80.96c.08-.09.19-.13.34-.13h2.06c.25,0,.38.14.38.42l-2.52,20.42c-.06.28-.21.42-.46.42h-2.1c-.11,0-.2-.04-.27-.13-.07-.09-.09-.18-.06-.29l.29-2.44c.03-.08.01-.13-.04-.15s-.1.02-.13.11c-.67,1.01-1.52,1.8-2.54,2.37-1.02.57-2.19.86-3.51.86-1.99,0-3.59-.65-4.81-1.95-1.22-1.3-1.83-2.99-1.83-5.06,0-.73.13-2.03.38-3.91.14-1.26.29-2.3.44-3.13.15-.83.36-1.59.61-2.29.62-1.65,1.64-2.99,3.09-4.03,1.44-1.04,3.09-1.55,4.94-1.55,2.55,0,4.26,1.05,5.12,3.15.03.09.06.12.11.11.04-.01.08-.06.1-.15l.29-2.35c0-.11.04-.21.13-.29ZM191.63,94.4c.1-.5.24-1.47.44-2.9.19-1.85.29-3.03.29-3.53,0-.36-.01-.64-.04-.84-.06-1.15-.47-2.11-1.24-2.88-.77-.77-1.8-1.15-3.09-1.15s-2.48.38-3.49,1.13c-1.01.76-1.71,1.72-2.1,2.9-.17.45-.3.94-.4,1.47-.1.53-.23,1.49-.4,2.86-.23,1.65-.34,2.77-.34,3.36,0,.25.03.57.08.97.08,1.18.55,2.14,1.39,2.9.84.76,1.9,1.13,3.19,1.13s2.39-.38,3.32-1.13c.92-.76,1.58-1.72,1.97-2.9.17-.42.3-.88.4-1.39Z"/><path class="cls-5" d="M213.41,81.17c.17.11.22.29.17.55l-.71,2.06c-.14.28-.32.37-.55.25-.45-.19-.97-.29-1.55-.29l-.55.04c-1.43.06-2.66.59-3.7,1.62s-1.65,2.32-1.85,3.89l-1.55,12.39c0,.11-.04.21-.13.29s-.2.13-.34.13h-2.06c-.25,0-.38-.14-.38-.42l2.52-20.42c.05-.28.21-.42.46-.42h2.06c.14,0,.24.04.31.13.07.08.09.18.06.29l-.34,2.56c0,.09.02.13.06.15.04.02.09,0,.15-.06.67-1.04,1.48-1.84,2.44-2.42.95-.57,2.02-.86,3.19-.86.9,0,1.65.18,2.27.54Z"/><line class="cls-1" x1="54.65" y1="183.12" x2="56.91" y2="206.28"/><line class="cls-1" x1="90.23" y1="200.63" x2="54.79" y2="204.16"/><line class="cls-1" x1="321.25" y1="59.94" x2="319.09" y2="36.78"/><line class="cls-1" x1="285.75" y1="42.28" x2="321.2" y2="38.91"/><path class="cls-3" d="M43.48,159.4c-.15-.14-.22-.32-.22-.53v-42.24c0-.21.07-.39.22-.53s.33-.22.53-.22h5.75c.21,0,.39.07.53.22.14.14.22.32.22.53v42.24c0,.21-.08.39-.22.53-.15.15-.33.22-.53.22h-5.75c-.21,0-.39-.07-.53-.22Z"/><path class="cls-3" d="M82.35,130.18c2.02,2,3.03,4.73,3.03,8.19v20.5c0,.21-.07.39-.22.53-.14.15-.32.22-.53.22h-5.75c-.21,0-.38-.07-.53-.22-.15-.14-.22-.32-.22-.53v-19c0-1.91-.54-3.47-1.62-4.66-1.09-1.19-2.52-1.78-4.31-1.78s-3.24.58-4.34,1.75c-1.11,1.17-1.66,2.71-1.66,4.62v19.06c0,.21-.07.39-.22.53-.15.15-.33.22-.53.22h-5.75c-.21,0-.39-.07-.53-.22-.15-.14-.22-.32-.22-.53v-30.43c0-.21.07-.39.22-.53.14-.15.32-.22.53-.22h5.75c.2,0,.38.07.53.22.15.14.22.32.22.53v2c0,.12.04.21.13.25.08.04.14,0,.18-.12,1.71-2.25,4.29-3.37,7.75-3.37s6.07,1,8.09,3Z"/><path class="cls-3" d="M93.88,122.06c-.83-.83-1.25-1.9-1.25-3.19s.41-2.35,1.25-3.19c.83-.83,1.9-1.25,3.19-1.25s2.35.42,3.19,1.25c.83.83,1.25,1.9,1.25,3.19s-.42,2.35-1.25,3.19-1.9,1.25-3.19,1.25-2.35-.41-3.19-1.25ZM93.53,159.4c-.15-.14-.22-.32-.22-.53v-30.5c0-.21.07-.38.22-.53.14-.14.32-.22.53-.22h5.75c.21,0,.38.07.53.22.15.15.22.32.22.53v30.5c0,.21-.07.39-.22.53-.15.15-.32.22-.53.22h-5.75c-.21,0-.39-.07-.53-.22Z"/><path class="cls-3" d="M113.85,158.84c-1.98-.77-3.51-1.83-4.6-3.19-1.08-1.35-1.62-2.86-1.62-4.53v-.56c0-.21.07-.38.22-.53.14-.15.32-.22.53-.22h5.5c.21,0,.38.07.53.22.15.14.22.32.22.53v.13c0,1.04.57,1.95,1.72,2.72s2.59,1.15,4.34,1.15,3.02-.34,4.06-1.03c1.04-.69,1.56-1.55,1.56-2.59,0-.96-.43-1.68-1.28-2.16-.85-.48-2.24-.99-4.16-1.53l-2.38-.75c-2.13-.63-3.92-1.29-5.38-2-1.46-.71-2.69-1.68-3.69-2.91-1-1.23-1.5-2.8-1.5-4.72,0-2.91,1.15-5.24,3.44-6.97,2.29-1.73,5.31-2.59,9.06-2.59,2.54,0,4.77.41,6.69,1.22,1.91.81,3.39,1.94,4.43,3.38,1.04,1.44,1.56,3.07,1.56,4.91,0,.21-.07.38-.22.53-.14.14-.32.22-.53.22h-5.31c-.21,0-.38-.07-.53-.22-.15-.15-.22-.32-.22-.53,0-1.08-.53-1.99-1.59-2.72s-2.51-1.09-4.34-1.09c-1.63,0-2.95.3-3.97.91-1.02.61-1.53,1.45-1.53,2.53,0,1,.49,1.76,1.47,2.28.98.52,2.61,1.09,4.91,1.72l1.37.38c2.21.67,4.06,1.34,5.56,2.03,1.5.69,2.77,1.65,3.81,2.88s1.56,2.82,1.56,4.78c0,2.96-1.16,5.28-3.5,6.97-2.33,1.69-5.44,2.53-9.31,2.53-2.62,0-4.93-.38-6.9-1.15Z"/><path class="cls-3" d="M156.34,133.34c-.15.14-.33.22-.53.22h-6.37c-.21,0-.32.1-.32.31v15.06c0,1.58.35,2.73,1.03,3.44.69.71,1.78,1.06,3.28,1.06h1.88c.21,0,.39.07.53.22.15.15.22.32.22.53v4.69c0,.46-.25.73-.75.81l-3.25.06c-3.29,0-5.75-.56-7.37-1.69-1.63-1.13-2.46-3.25-2.5-6.37v-17.81c0-.21-.1-.31-.31-.31h-3.56c-.21,0-.39-.07-.53-.22s-.22-.32-.22-.53v-4.37c0-.21.07-.39.22-.53.15-.15.32-.22.53-.22h3.56c.21,0,.31-.1.31-.31v-7.31c0-.21.08-.38.22-.53.15-.14.33-.22.53-.22h5.44c.21,0,.39.07.53.22.15.15.22.33.22.53v7.31c0,.21.11.31.32.31h6.37c.21,0,.39.07.53.22.14.14.22.32.22.53v4.37c0,.21-.08.39-.22.53Z"/><path class="cls-3" d="M160.71,143.71c-.14-.14-.22-.32-.22-.53v-4.75c0-.21.08-.39.22-.53.15-.14.33-.22.53-.22h19.69c.21,0,.38.07.53.22s.22.32.22.53v4.75c0,.21-.07.38-.22.53-.15.15-.32.22-.53.22h-19.69c-.21,0-.39-.07-.53-.22Z"/><path class="cls-3" d="M194.68,158.27c-2.38-1.23-4.21-2.95-5.5-5.16-1.29-2.21-1.94-4.77-1.94-7.69v-15.44c0-2.92.65-5.48,1.94-7.69,1.29-2.21,3.12-3.92,5.5-5.12s5.13-1.81,8.25-1.81,5.81.58,8.19,1.75c2.38,1.17,4.21,2.81,5.5,4.94,1.29,2.12,1.94,4.58,1.94,7.37,0,.21-.07.38-.22.53-.15.14-.32.22-.53.22l-5.75.31c-.5,0-.75-.23-.75-.69,0-2.46-.76-4.44-2.28-5.94-1.52-1.5-3.55-2.25-6.09-2.25s-4.58.75-6.12,2.25c-1.54,1.5-2.31,3.48-2.31,5.94v15.94c0,2.42.77,4.37,2.31,5.87s3.58,2.25,6.12,2.25,4.57-.74,6.09-2.22c1.52-1.48,2.28-3.45,2.28-5.91,0-.46.25-.69.75-.69l5.75.25c.21,0,.38.06.53.19s.22.27.22.44c0,2.83-.65,5.32-1.94,7.47s-3.12,3.8-5.5,4.97c-2.38,1.17-5.11,1.75-8.19,1.75s-5.87-.62-8.25-1.84Z"/><path class="cls-3" d="M251.95,116.09c.15-.14.32-.22.53-.22h5.75c.21,0,.39.07.53.22.15.14.22.32.22.53v42.24c0,.21-.07.39-.22.53-.14.15-.32.22-.53.22h-5.56c-.42,0-.71-.17-.87-.5l-18-29.49c-.08-.13-.16-.18-.25-.16-.08.02-.12.11-.12.28l.12,29.12c0,.21-.07.39-.22.53-.15.15-.32.22-.53.22h-5.75c-.21,0-.39-.07-.53-.22-.15-.14-.22-.32-.22-.53v-42.24c0-.21.07-.39.22-.53.14-.14.32-.22.53-.22h5.56c.42,0,.71.17.87.5l17.94,29.5c.08.12.16.18.25.16.08-.02.12-.11.12-.28l-.06-29.12c0-.21.07-.39.22-.53Z"/><path class="cls-3" d="M291.79,159.05l-8.25-18c-.08-.17-.21-.25-.37-.25h-7.5c-.21,0-.31.1-.31.31v17.75c0,.21-.08.39-.22.53-.15.15-.33.22-.53.22h-5.75c-.21,0-.39-.07-.53-.22-.15-.14-.22-.32-.22-.53v-42.24c0-.21.07-.39.22-.53s.33-.22.53-.22h17.18c2.54,0,4.79.53,6.75,1.59,1.96,1.06,3.48,2.56,4.56,4.5s1.63,4.16,1.63,6.65c0,2.88-.74,5.32-2.22,7.34s-3.53,3.43-6.15,4.22c-.09,0-.15.04-.19.12s-.04.17,0,.25l8.81,18.19c.08.17.12.29.12.37,0,.34-.23.5-.69.5h-6c-.42,0-.71-.19-.87-.56ZM275.36,122.43v12.44c0,.21.1.31.31.31h9.37c2,0,3.62-.6,4.85-1.78,1.23-1.19,1.84-2.76,1.84-4.72s-.62-3.54-1.84-4.75c-1.23-1.21-2.84-1.81-4.85-1.81h-9.37c-.21,0-.31.1-.31.31Z"/><path class="cls-3" d="M312.04,158.55c-2.42-1.04-4.28-2.5-5.59-4.37s-1.97-4.08-1.97-6.62v-1.56c0-.21.07-.38.22-.53.14-.15.32-.22.53-.22h5.56c.21,0,.39.07.53.22.15.14.22.32.22.53v1.19c0,1.92.85,3.51,2.56,4.78,1.71,1.27,4.04,1.91,7,1.91,2.54,0,4.46-.54,5.75-1.62s1.94-2.48,1.94-4.19c0-1.16-.36-2.15-1.06-2.97-.71-.81-1.72-1.55-3.03-2.22s-3.28-1.5-5.9-2.5c-2.96-1.08-5.36-2.11-7.19-3.06-1.84-.96-3.37-2.26-4.59-3.91-1.23-1.65-1.85-3.69-1.85-6.15,0-3.67,1.33-6.56,4-8.69,2.67-2.13,6.23-3.19,10.69-3.19,3.12,0,5.88.54,8.28,1.62s4.26,2.59,5.59,4.53c1.33,1.94,2,4.18,2,6.72v1.06c0,.21-.08.38-.22.53-.15.14-.33.22-.53.22h-5.62c-.21,0-.38-.07-.53-.22-.15-.15-.22-.32-.22-.53v-.69c0-1.96-.8-3.61-2.41-4.97-1.61-1.36-3.82-2.03-6.66-2.03-2.29,0-4.07.48-5.34,1.44-1.27.96-1.91,2.31-1.91,4.06,0,1.25.33,2.27,1,3.06s1.67,1.51,3,2.16,3.4,1.47,6.19,2.47c2.95,1.13,5.32,2.15,7.09,3.06,1.77.92,3.3,2.2,4.57,3.84,1.27,1.65,1.9,3.7,1.9,6.16,0,3.75-1.38,6.73-4.16,8.94-2.77,2.21-6.55,3.31-11.34,3.31-3.25,0-6.08-.52-8.5-1.56Z"/></svg>