<?xml version="1.0" encoding="UTF-8"?>
<svg width="192px" height="64px" viewBox="0 0 192 64" version="1.1" xmlns="http://www.w3.org/2000/svg" xmlns:xlink="http://www.w3.org/1999/xlink">
    <!-- Generator: Sketch 63.1 (92452) - https://sketch.com -->
    <title>kibana-logo-color-horizontal</title>
    <desc>Created with Sketch.</desc>
    <g id="kibana-logo-color-horizontal" stroke="none" stroke-width="1" fill="none" fill-rule="evenodd">
        <rect id="bounding-box" x="0" y="0" width="192" height="64"></rect>
        <g id="group" transform="translate(6.000000, 5.000000)">
            <path d="M-2.84217094e-14,20.25 L-2.84217094e-14,48.581 L20.137,25.392 C14.149,22.13 7.299,20.25 -2.84217094e-14,20.25" id="Fill-1" fill="#343741"></path>
            <path d="M-7.10542736e-15,-3.01980663e-14 L-7.10542736e-15,20.25 C7.299,20.25 14.149,22.13 20.137,25.392 L42.188,-3.01980663e-14 L-7.10542736e-15,-3.01980663e-14 Z" id="Fill-3" fill="#F04E98"></path>
            <path d="M24.4434,28.0591 L3.7754,51.8601 L1.9164,54.0001 L41.3414,54.0001 C39.1784,43.3421 32.9924,34.1491 24.4434,28.0591" id="Fill-6" fill="#00BFB3"></path>
        </g>
        <path d="M74.2745902,46.3916084 L74.2745902,33.006993 L85.0235656,46.3916084 L92.0163934,46.3916084 L79.7889344,31.3846154 L91.2172131,18 L84.9436475,18 L74.2745902,30.7356643 L74.2745902,18 L69,18 L69,46.3916084 L74.2745902,46.3916084 Z M99.6086066,22.9076923 L99.6086066,18 L94.5737705,18 L94.5737705,22.9076923 L99.6086066,22.9076923 Z M99.6086066,46.3916084 L99.6086066,27.0447552 L94.5737705,27.0447552 L94.5737705,46.3916084 L99.6086066,46.3916084 Z M115.072746,47 C120.107582,47 123.903689,42.8629371 123.903689,36.7384615 C123.903689,30.5328671 119.947746,26.4363636 114.91291,26.4363636 C112.155738,26.4363636 110.157787,27.8153846 109.278689,29.5188811 L109.278689,18 L104.243852,18 L104.243852,46.3916084 L108.879098,46.3916084 L108.879098,43.7146853 L108.998975,43.7146853 C110.197746,46.0671329 112.795082,47 115.072746,47 Z M113.953893,42.5384615 C110.917008,42.5384615 109.078893,40.1048951 109.078893,36.7384615 C109.078893,33.3314685 110.917008,30.9384615 113.953893,30.9384615 C116.990779,30.9384615 118.828893,33.4125874 118.828893,36.7384615 C118.828893,39.9832168 116.990779,42.5384615 113.953893,42.5384615 Z M133.334016,46.9594406 C135.61168,46.9594406 137.889344,45.9454545 138.808402,44.4853147 L138.968238,44.4853147 L138.968238,46.3916084 L143.723361,46.3916084 L143.723361,34.1426573 C143.723361,29.1944056 140.88627,26.4363636 135.811475,26.4363636 C131.455943,26.4363636 128.339139,28.4643357 127.220287,31.993007 L132.255123,32.3986014 C132.694672,31.3440559 133.773566,30.4923077 135.491803,30.4923077 C137.529713,30.4923077 138.728484,31.7090909 138.728484,33.8181818 L138.728484,35.2377622 C138.089139,34.8727273 136.45082,34.5076923 134.8125,34.5076923 C129.737705,34.5076923 126.660861,36.9006993 126.660861,40.9160839 C126.660861,44.4447552 129.418033,46.9594406 133.334016,46.9594406 Z M134.772541,42.9846154 C132.854508,42.9846154 131.735656,42.0111888 131.735656,40.5104895 C131.735656,39.0097902 133.054303,38.0363636 135.371926,38.0363636 C136.85041,38.0363636 138.248975,38.4013986 138.808402,38.8881119 L138.808402,40.1454545 C138.808402,41.6461538 136.930328,42.9846154 134.772541,42.9846154 Z M153.033811,46.3916084 L153.033811,35.2783217 C153.033811,32.6825175 154.831967,30.9384615 157.029713,30.9384615 C159.067623,30.9384615 160.226434,32.2769231 160.226434,34.9538462 L160.226434,46.3916084 L165.26127,46.3916084 L165.26127,34.020979 C165.26127,29.234965 162.703893,26.4363636 158.588115,26.4363636 C155.95082,26.4363636 153.832992,27.7342657 152.754098,29.4783217 L152.67418,29.4783217 L152.67418,27.0447552 L147.998975,27.0447552 L147.998975,46.3916084 L153.033811,46.3916084 Z M175.610656,46.9594406 C177.88832,46.9594406 180.165984,45.9454545 181.085041,44.4853147 L181.244877,44.4853147 L181.244877,46.3916084 L186,46.3916084 L186,34.1426573 C186,29.1944056 183.16291,26.4363636 178.088115,26.4363636 C173.732582,26.4363636 170.615779,28.4643357 169.496926,31.993007 L174.531762,32.3986014 C174.971311,31.3440559 176.050205,30.4923077 177.768443,30.4923077 C179.806352,30.4923077 181.005123,31.7090909 181.005123,33.8181818 L181.005123,35.2377622 C180.365779,34.8727273 178.727459,34.5076923 177.089139,34.5076923 C172.014344,34.5076923 168.9375,36.9006993 168.9375,40.9160839 C168.9375,44.4447552 171.694672,46.9594406 175.610656,46.9594406 Z M177.04918,42.9846154 C175.131148,42.9846154 174.012295,42.0111888 174.012295,40.5104895 C174.012295,39.0097902 175.330943,38.0363636 177.648566,38.0363636 C179.127049,38.0363636 180.525615,38.4013986 181.085041,38.8881119 L181.085041,40.1454545 C181.085041,41.6461538 179.206967,42.9846154 177.04918,42.9846154 Z" id="Kibana" fill="#343741" fill-rule="nonzero"></path>
    </g>
</svg>