<?xml version="1.0" encoding="UTF-8" standalone="no"?>
<!-- Created with Inkscape (http://www.inkscape.org/) -->

<svg
   xmlns:dc="http://purl.org/dc/elements/1.1/"
   xmlns:cc="http://creativecommons.org/ns#"
   xmlns:rdf="http://www.w3.org/1999/02/22-rdf-syntax-ns#"
   xmlns:svg="http://www.w3.org/2000/svg"
   xmlns="http://www.w3.org/2000/svg"
   xmlns:sodipodi="http://sodipodi.sourceforge.net/DTD/sodipodi-0.dtd"
   xmlns:inkscape="http://www.inkscape.org/namespaces/inkscape"
   width="1280mm"
   height="540mm"
   viewBox="0 0 1280 540"
   version="1.1"
   id="svg8"
   inkscape:version="0.92.3 (2405546, 2018-03-11)"
   sodipodi:docname="pres_ezpaarse.svg">
  <defs
     id="defs2" />
  <sodipodi:namedview
     id="base"
     pagecolor="#8181ff"
     bordercolor="#666666"
     borderopacity="1.0"
     inkscape:pageopacity="0"
     inkscape:pageshadow="2"
     inkscape:zoom="0.24748737"
     inkscape:cx="2469.1443"
     inkscape:cy="1120.0575"
     inkscape:document-units="mm"
     inkscape:current-layer="layer1"
     showgrid="false"
     scale-x="1"
     fit-margin-bottom="-0.7"
     inkscape:window-width="1920"
     inkscape:window-height="1051"
     inkscape:window-x="1920"
     inkscape:window-y="0"
     inkscape:window-maximized="1"
     inkscape:pagecheckerboard="false"
     fit-margin-right="-0.6" />
  <metadata
     id="metadata5">
    <rdf:RDF>
      <cc:Work
         rdf:about="">
        <dc:format>image/svg+xml</dc:format>
        <dc:type
           rdf:resource="http://purl.org/dc/dcmitype/StillImage" />
        <dc:title />
      </cc:Work>
    </rdf:RDF>
  </metadata>
  <g
     inkscape:groupmode="layer"
     id="layer2"
     inkscape:label="Fond"
     style="display:inline">
    <rect
       style="display:inline;fill:#4db6ac;fill-opacity:1;stroke:none;stroke-width:6;stroke-miterlimit:4;stroke-dasharray:none;stroke-opacity:1"
       id="rect4601"
       width="1323.5187"
       height="584.78577"
       x="-21.759338"
       y="-265.39288"
       transform="translate(0,243)" />
  </g>
  <g
     inkscape:label="Calque 1"
     inkscape:groupmode="layer"
     id="layer1"
     transform="translate(0,243)"
     style="display:inline">
    <g
       id="g878"
       transform="matrix(2.929538,0,0,2.929538,-2601.5216,-554.93751)">
      <path
         id="path868"
         style="display:inline;fill:#ffffff;fill-opacity:1;fill-rule:nonzero;stroke:none;stroke-width:1.10653818"
         d="m 1181.7138,184.95713 c -0.5267,-5.03365 -1.631,-9.95774 -3.2001,-14.71696 6.9546,22.65526 2.7376,46.57862 -11.6485,67.29412 -6.7986,9.89688 -14.8431,16.70098 -24.7389,21.64831 -11.1351,6.18777 -22.8854,8.04564 -35.2565,8.04564 -9.9002,-0.62076 -19.7971,-2.47532 -29.0743,-8.04564 -5.5692,-3.71133 -9.898,-7.42376 -14.8465,-11.75143 -19.7948,-19.79155 -22.8854,-55.05138 -3.0927,-75.46369 -19.1752,22.26797 -12.9908,57.52338 9.898,75.46369 1.8545,1.23821 3.0927,1.85566 4.3276,3.09277 20.4168,13.6071 44.5371,12.98855 64.9505,1.85788 16.7021,-9.89909 28.4535,-24.7422 32.7856,-43.91961 5.5637,-22.88764 -0.6207,-44.53595 -14.8453,-62.47404 -23.5073,-28.45463 -65.5712,-35.26094 -97.1164,-17.94141 20.409,-10.51322 45.1556,-11.75033 66.805,-3.08945 21.032,8.65755 37.1144,25.97819 43.3011,48.24617 4.2048,16.22517 3.1547,32.44148 -4.8434,47.53024 -0.2788,0.49351 -7.9803,13.95013 -15.4561,20.91689 -5.2085,4.66959 -11.1672,8.43514 -18.0509,10.73121 -1.2405,0.61413 -2.4743,1.23489 -3.7125,1.85345 -24.1269,8.04011 -51.3422,-1.23932 -64.9505,-23.50398 -7.4226,-12.98965 -9.8946,-28.45241 -3.0927,-42.06394 -6.1867,15.46498 0,31.54851 9.2772,43.9185 6.1877,6.803 12.9896,11.75365 21.6516,14.84532 7.4205,2.47532 15.4628,3.71243 23.5073,3.09277 13.6071,-1.85456 25.976,-7.42266 35.2576,-17.93809 11.1329,-12.99076 16.6988,-29.07208 15.4617,-46.39383 -1.236,-17.31621 -9.8958,-32.16485 -22.8854,-43.9196 -14.8464,-12.36667 -34.0216,-17.93477 -53.2002,-16.078 -22.2657,2.47422 -42.6802,14.84199 -55.6699,33.40196 16.7021,-22.88653 43.9174,-37.1155 72.9917,-32.78562 10.5165,1.85788 19.1774,4.33099 28.4557,10.51433 8.6609,6.18444 15.4617,12.98965 21.0309,22.27129 12.3689,19.79043 11.1307,43.91739 -0.6186,63.0948 -6.1877,9.27833 -14.8475,16.0769 -24.7444,20.4101 -20.4134,8.65756 -45.1567,2.47422 -57.5245,-16.69987 -8.0434,-12.37331 -8.0434,-28.45795 0,-40.20939 -8.6631,16.08686 -2.4775,36.49916 12.3678,47.01239 13.6104,9.27832 30.9289,9.89687 45.1567,3.09498 12.993,-6.80853 22.2669,-17.93919 25.363,-32.78562 3.7091,-17.9392 -0.6186,-35.87618 -12.37,-49.4866 -13.6104,-15.46387 -34.0216,-22.26908 -54.4384,-20.41231 -1.2349,0 -3.0894,1.24043 -4.3298,1.24043 -39.5853,6.18112 -64.3264,48.24949 -56.9049,85.97913 -4.3321,-22.26909 2.4709,-45.77417 17.3196,-63.09924 9.8957,-10.5099 22.2668,-18.55222 37.1121,-21.6472 25.9816,-5.56478 52.5805,4.94843 66.1865,27.83828 9.9013,17.31843 9.2806,37.73074 -1.8534,54.43394 -6.8086,9.27942 -15.465,14.22565 -25.9793,16.70098 -13.6071,3.09277 -29.6918,-1.85677 -34.6402,-14.84532 6.1833,8.65977 17.3184,12.98855 27.8361,12.36999 22.2624,-1.236 37.7329,-23.50177 36.4925,-44.53263 -1.2371,-16.08574 -10.5177,-29.69506 -24.1203,-38.97338 -8.6653,-5.57031 -18.5589,-8.04343 -28.458,-8.66087 -9.8958,0 -19.1752,1.85345 -28.4535,6.80631 -7.4216,4.32767 -13.6071,8.65977 -19.1752,14.84311 -6.8041,8.04342 -11.7537,17.31842 -14.2279,27.83607 -1.8579,8.66087 -2.4742,16.70319 -1.236,25.36075 3.0906,17.32064 11.134,32.16596 23.5062,43.91739 9.2772,8.04564 19.173,13.60932 30.9255,16.70209 3.0939,0.62409 5.5726,1.23711 8.0435,1.85567 2.1655,0.29655 4.3298,0.51232 6.4976,0.65285 -0.1041,-0.0144 -0.2059,-0.0243 -0.3121,-0.0332 -10.5154,-1.23821 -21.032,-3.70911 -30.3081,-9.27943 -2.4775,-1.85234 -4.3287,-3.09167 -6.8063,-4.32767 -4.9484,-3.09388 -8.6575,-6.80411 -12.3711,-11.1362 -1.8568,-2.47312 -3.7113,-4.32989 -5.5681,-6.80522 -16.7021,-24.12031 -17.3173,-54.4317 0,-78.55313 9.2817,-12.99076 21.6528,-21.03308 37.1133,-23.5084 19.7971,-3.71355 40.8302,3.71354 50.7204,21.64942 -9.2739,-14.22566 -26.5923,-20.41122 -42.677,-19.79487 -22.269,1.23601 -41.4454,16.70541 -48.2472,37.72964 -2.4743,8.66308 -3.7125,17.32285 -3.0939,26.60007 1.0634,12.78826 6.2574,24.64923 14.3949,34.41554 0,0 5.2251,6.42013 10.9725,10.82969 0.7602,0.71039 1.5757,1.32342 2.4698,1.76935 0.1847,0.10403 0.374,0.20582 0.5599,0.31205 0.4636,0.27552 0.925,0.53003 1.382,0.75797 9.3293,5.04693 19.1951,8.90764 29.6032,10.06176 13.6071,1.23933 27.2187,-1.23711 39.5887,-7.42155 1.8556,-1.23933 3.7124,-1.85899 5.5681,-3.09499 24.7411,-16.69988 38.3526,-44.53595 35.2576,-73.60691"
         inkscape:connector-curvature="0" />
      <path
         id="path880"
         style="display:inline;fill:#ffffff;fill-opacity:1;fill-rule:nonzero;stroke:none;stroke-width:1.10653818"
         d="m 1113.667,268.48238 c 0,5.6356 -4.5667,10.20339 -10.2001,10.20339 -5.6367,0 -10.2023,-4.56779 -10.2023,-10.20339 0,-5.62896 4.5656,-10.19786 10.2023,-10.19786 5.6334,0 10.2001,4.5689 10.2001,10.19786"
         inkscape:connector-curvature="0" />
      <path
         id="path884"
         style="display:inline;fill:#ffffff;fill-opacity:1;fill-rule:nonzero;stroke:none;stroke-width:1.10653818"
         d="m 1044.8963,204.36638 c 0,5.63117 -4.5678,10.20228 -10.2001,10.20228 -5.6367,0 -10.2011,-4.57111 -10.2011,-10.20228 0,-5.63339 4.5644,-10.19896 10.2011,-10.19896 5.6323,0 10.2001,4.56557 10.2001,10.19896"
         inkscape:connector-curvature="0" />
      <path
         id="path888"
         style="display:inline;fill:#ffffff;fill-opacity:1;fill-rule:nonzero;stroke:none;stroke-width:1.10653818"
         d="m 1104.2625,130.38986 c 0,5.6356 -4.5667,10.20228 -10.2012,10.20228 -5.6322,0 -10.2,-4.56668 -10.2,-10.20228 0,-5.63117 4.5678,-10.19675 10.2,-10.19675 5.6345,0 10.2012,4.56558 10.2012,10.19675"
         inkscape:connector-curvature="0" />
      <path
         id="path892"
         style="display:inline;fill:#ffffff;fill-opacity:1;fill-rule:nonzero;stroke:none;stroke-width:1.10653818"
         d="m 1161.7712,224.02201 c 0,5.63339 -4.5656,10.19786 -10.2023,10.19786 -5.6311,0 -10.1978,-4.56447 -10.1978,-10.19786 0,-5.63117 4.5667,-10.19896 10.1978,-10.19896 5.6367,0 10.2023,4.56779 10.2023,10.19896"
         inkscape:connector-curvature="0" />
      <path
         id="path896"
         style="display:inline;fill:#ffffff;fill-opacity:1;fill-rule:nonzero;stroke:none;stroke-width:1.10653818"
         d="m 1165.8116,134.38271 c 0,5.63339 -4.5678,10.20118 -10.2034,10.20118 -5.6323,0 -10.1989,-4.56779 -10.1989,-10.20118 0,-5.63338 4.5666,-10.19675 10.1989,-10.19675 5.6356,0 10.2034,4.56337 10.2034,10.19675"
         inkscape:connector-curvature="0" />
      <path
         id="path900"
         style="display:inline;fill:#ffffff;fill-opacity:1;fill-rule:nonzero;stroke:none;stroke-width:1.10653818"
         d="m 1188.4966,196.2656 c 0,3.50884 -2.8404,6.34932 -6.3482,6.34932 -3.5066,0 -6.3504,-2.84048 -6.3504,-6.34932 0,-3.50551 2.8438,-6.3482 6.3504,-6.3482 3.5078,0 6.3482,2.84269 6.3482,6.3482"
         inkscape:connector-curvature="0" />
      <path
         id="path904"
         style="display:inline;fill:#ffffff;fill-opacity:1;fill-rule:nonzero;stroke:none;stroke-width:1.10653818"
         d="m 1047.3969,146.15217 c 0,3.51105 -2.846,6.34821 -6.3493,6.34821 -3.5089,0 -6.3516,-2.83716 -6.3516,-6.34821 0,-3.5044 2.8427,-6.34821 6.3516,-6.34821 3.5033,0 6.3493,2.84381 6.3493,6.34821"
         inkscape:connector-curvature="0" />
      <path
         id="path908"
         style="display:inline;fill:#ffffff;fill-opacity:1;fill-rule:nonzero;stroke:none;stroke-width:1.10653818"
         d="m 1060.094,255.96523 c 0,3.50552 -2.8438,6.34711 -6.3494,6.34711 -3.5088,0 -6.3482,-2.84159 -6.3482,-6.34711 0,-3.5044 2.8394,-6.34599 6.3482,-6.34599 3.5056,0 6.3494,2.84159 6.3494,6.34599"
         inkscape:connector-curvature="0" />
    </g>
  </g>
</svg>
